<?xml version="1.0" encoding="utf-8"?>
<!-- Uploaded to: SVG Repo, www.svgrepo.com, Generator: SVG Repo Mixer Tools -->
<svg fill="#000000" height="800px" width="800px" version="1.2" baseProfile="tiny" id="bicycle_by_Adioma"
	 xmlns="http://www.w3.org/2000/svg" xmlns:xlink="http://www.w3.org/1999/xlink"  viewBox="0 0 256 154.7"
	 xml:space="preserve">
<path d="M208.4,54.8c-4.6,0-9,0.7-13.1,2L175.9,8.3c-0.8-1.9-2.5-3.1-4.5-3.1h-22.8c-2.7,0-4.9,2.2-4.9,5s2.2,5,4.9,5
	c0,0,14.7,0,19.5,0c0.5,1.2,2.4,6.1,5.2,12.9L91.2,28l-4-7.4l19.2-2.2c1.9,0,3.5-1.6,3.5-3.6s-1.6-3.6-3.5-3.6H74
	c-2,0-3.5,1.6-3.5,3.6s-0.7,7.8,5.4,7.1l0.8-0.1l5.6,10.4L66.9,59c-5.9-2.7-12.4-4.3-19.3-4.3c-25.8,0-46.9,21.5-46.9,47.9
	c0,26.4,21,48,46.8,48c24.2,0,44.2-18.8,46.6-42.9h30.7c2.5,0,4.6-1,5.9-2.8L179,42.4c2.3,5.7,4.8,11.9,7.2,18.1
	c-14.7,8.1-24.7,24-24.7,42.2c0,26.4,21,48,46.8,48c25.8,0,46.9-21.5,46.9-47.9C255.3,76.3,234.3,54.8,208.4,54.8z M47.6,140.5
	c-20.4,0-37-17-37-38c0-20.9,16.7-37.9,37.1-37.9c5.1,0,9.9,1.1,14.3,3L43.4,100c-0.9,1.5-0.9,3.5,0,5c0.9,1.5,2.5,2.5,4.2,2.5h36.7
	C81.9,126.2,66.3,140.6,47.6,140.5z M56.1,97.6l14.3-24.9c7.5,6,12.7,14.8,13.9,24.9C72.5,97.6,61.3,97.6,56.1,97.6z M94.2,97.6
	C92.8,83.8,85.7,71.8,75.3,64c5-8.7,9.7-16.9,12.5-21.7l30.1,55.4C112.3,97.6,103.5,97.6,94.2,97.6z M127.6,91.6L96.7,38.1
	c16.8,0,60.3,0.1,73.2,0.1C162.3,47.9,137.8,78.3,127.6,91.6z M208.4,140.7c-20.4,0-37.1-17.1-37-38c0-14,7.5-26.3,18.6-32.8
	c7.4,18.6,13.9,34.8,13.9,34.8c1,2.6,3.9,3.8,6.4,2.7c2.5-1,3.7-4,2.7-6.5l-14-34.8c3-0.8,6.2-1.3,9.4-1.3c20.4,0,37,17.1,37,38
	C245.5,123.7,228.8,140.7,208.4,140.7z"/>
</svg>